<?xml version="1.0" standalone="no"?><!DOCTYPE svg PUBLIC "-//W3C//DTD SVG 1.1//EN" "http://www.w3.org/Graphics/SVG/1.1/DTD/svg11.dtd"><svg t="1592056445498" class="icon" viewBox="0 0 1024 1024" version="1.1" xmlns="http://www.w3.org/2000/svg" p-id="2208" xmlns:xlink="http://www.w3.org/1999/xlink" width="200" height="200"><defs><style type="text/css"></style></defs><path d="M226.31424 798.27968c0.02048 1.86368 0.0512 3.25632 0.07168 4.16768 0.01024 0.55296-0.09216 1.0752-0.12288 1.62816 1.24928 30.8224 26.65472 55.52128 57.77408 55.52128l513.90464 0 0-56.60672c0-11.30496 9.17504-20.48 20.48-20.48s20.48 9.17504 20.48 20.48l0 77.08672c0 11.30496-9.17504 20.48-20.48 20.48L280.94464 900.5568c-1.06496 0-2.08896-0.1536-3.1232-0.31744-51.6096-3.2256-92.64128-46.12096-92.64128-98.53952 0-1.19808 0.14336-2.3552 0.18432-3.54304-0.63488-60.81536 0-523.38688 0.07168-573.71648-0.08192-0.7168-0.21504-1.40288-0.21504-2.12992 0-54.50752 44.3392-98.84672 98.84672-98.84672l0.17408 0 0 475.83232c0 5.48864 1.83296 10.50624 4.7616 13.01504 2.92864 2.52928 6.4512 2.10944 9.12384-1.06496l72.01792-85.03296 68.1984 84.82816c1.54624 1.92512 3.39968 2.90816 5.26336 2.90816 1.35168 0 2.70336-0.512 3.9424-1.55648 2.97984-2.48832 4.864-7.55712 4.864-13.1072L452.41344 123.45344l360.99072 0 5.00736 0c11.30496 0 20.48 9.17504 20.48 20.48l0 578.83648c0 11.30496-9.17504 20.48-20.48 20.48-0.12288 0-0.22528-0.03072-0.34816-0.03072-1.50528 0.3584-3.072 0.59392-4.68992 0.59392L284.03712 743.81312C253.27616 743.81312 228.10624 767.95904 226.31424 798.27968z" p-id="2209" fill="#97b282"></path></svg>